<svg width="14" height="15" viewBox="0 0 14 15" fill="none" xmlns="http://www.w3.org/2000/svg">
<path d="M7 0.5C3.13404 0.5 0 3.6339 0 7.5C0 11.3661 3.13404 14.5 7 14.5C10.866 14.5 14 11.3661 14 7.5C14 3.6339 10.866 0.5 7 0.5ZM7 1.9C10.0928 1.9 12.6 4.4074 12.6 7.5C12.6 10.5926 10.0928 13.1 7 13.1C3.90719 13.1 1.4 10.5926 1.4 7.5C1.4 4.4074 3.90719 1.9 7 1.9ZM7 4C6.61339 4 6.3 4.3136 6.3 4.7C6.3 5.0864 6.61339 5.4 7 5.4C7.38661 5.4 7.7 5.0864 7.7 4.7C7.7 4.3136 7.38661 4 7 4ZM7 6.1C6.61339 6.1 6.3 6.4136 6.3 6.8V10.3C6.3 10.6864 6.61339 11 7 11C7.38661 11 7.7 10.6864 7.7 10.3V6.8C7.7 6.4136 7.38661 6.1 7 6.1Z" fill="#0D0D12"/>
</svg>
