<svg width="116" height="20" viewBox="0 0 116 20" fill="none" xmlns="http://www.w3.org/2000/svg">
<path d="M7.47846 15.7037V9.44444C7.47846 8.09259 6.97492 6.81481 4.84887 6.81481C2.72283 6.81481 1.93955 8.09259 1.93955 10.4815V15.7037H0V5.2963H1.9582V6.77778C2.62958 5.64815 3.74855 4.98148 5.46431 4.98148C7.18006 4.98148 8.31769 5.62963 8.93312 6.77778C9.5672 5.75926 10.6862 4.98148 12.5325 4.98148C15.6096 4.98148 16.9338 6.46296 16.9338 9.85185V15.7037H14.9569V9.98148C14.9569 8.09259 14.4534 6.81481 12.3273 6.81481C10.2013 6.81481 9.43666 8.09259 9.43666 9.44444V15.7037H7.47846Z" fill="#07131C"/>
<path d="M26.2958 8.55556L20.4212 15.7222H17.9035L25.0277 7.05556H18.6495V5.20371H28.3286V15.7593H26.2772V8.57407L26.2958 8.55556Z" fill="#07131C"/>
<path d="M30.3987 15.7407V5.18518H32.3569V6.77778C33.0283 5.64815 34.0913 4.98148 35.6952 4.98148C38.2875 4.98148 39.5929 6.51852 39.5929 9.5H37.7653C37.7653 7.88889 37.1312 6.81481 35.3035 6.81481C33.4759 6.81481 32.3383 8.09259 32.3383 10.4815V15.7407H30.3801H30.3987Z" fill="#07131C"/>
<path d="M41.0289 15.7037V0H43.0804V15.7037H41.0289ZM51.6032 15.7407H48.955L43.0058 10.5L48.955 5.18519H51.6032L45.654 10.5L51.6032 15.7407Z" fill="#07131C"/>
<path d="M62.9235 11.1111H54.0277C54.2328 13.5 55.5942 14.3148 57.7949 14.3148C59.9955 14.3148 60.9839 13.3333 60.9839 12.1481H62.7929C62.7929 14.463 61.0585 16.0185 57.7949 16.0185C54.5312 16.0185 51.9389 14.1111 51.9389 10.4815C51.9389 6.85185 53.8971 4.98148 57.4032 4.98148C60.9093 4.98148 62.9048 6.96296 62.9048 10.6852V11.0926L62.9235 11.1111ZM60.9653 9.59259C60.7415 7.48148 59.4174 6.7037 57.5338 6.7037C55.6502 6.7037 54.4379 7.66667 54.1209 9.59259H60.9839H60.9653Z" fill="#07131C"/>
<path d="M66.7653 7.03704H63.9678V5.18519H66.7653L67.2502 1.12963H68.6489V5.18519C68.6302 5.18519 74.0386 5.18519 74.0386 5.18519V7.03704H68.6302V11.7593C68.6489 12.9444 68.8167 14.2037 70.3273 14.2037C71.8379 14.2037 72.2296 13.5556 72.2296 11.6852H74.0572C74.0572 14.9074 72.5839 16.037 70.29 16.037C67.9961 16.037 66.6907 14.9815 66.6907 12.1296L66.7839 7.05556L66.7653 7.03704Z" fill="#07131C"/>
<path d="M75.717 15.7407V0H77.582V15.7407H75.717Z" fill="#07131C"/>
<path d="M85.1164 4.98148C89.0328 4.98148 90.9537 6.87037 90.9537 10.5C90.9537 14.1296 89.0514 16.0185 85.1164 16.0185C81.1813 16.0185 79.3164 14.1296 79.3164 10.5C79.3164 6.87037 81.2 4.98148 85.1164 4.98148ZM85.1164 14.1852C87.6527 14.1852 88.8836 12.9074 88.8836 10.5C88.8836 8.09259 87.6527 6.81481 85.1164 6.81481C82.5801 6.81481 81.3678 8.09259 81.3678 10.5C81.3678 12.9074 82.5801 14.1852 85.1164 14.1852Z" fill="#07131C"/>
<path d="M98.0032 4.98148C101.92 4.98148 103.841 6.87037 103.841 10.5C103.841 14.1296 101.938 16.0185 98.0032 16.0185C94.0682 16.0185 92.2032 14.1296 92.2032 10.5C92.2032 6.87037 94.0868 4.98148 98.0032 4.98148ZM98.0032 14.1852C100.54 14.1852 101.77 12.9074 101.77 10.5C101.77 8.09259 100.54 6.81481 98.0032 6.81481C95.4669 6.81481 94.2547 8.09259 94.2547 10.5C94.2547 12.9074 95.4669 14.1852 98.0032 14.1852Z" fill="#07131C"/>
<path d="M105.37 20V5.18518H107.459V6.81481C108.093 5.64815 109.193 4.98148 111.132 4.98148C114.023 4.98148 116 6.87037 116 10.5C116 14.1296 113.669 16.0185 111.058 16.0185C108.447 16.0185 108.074 15.2778 107.477 14.1296V20H105.37ZM110.741 6.81481C108.615 6.81481 107.477 8.09259 107.477 10.4815C107.477 12.8704 108.633 14.1852 110.741 14.1852C112.848 14.1852 113.949 12.8889 113.949 10.4815C113.949 8.07407 112.979 6.81481 110.741 6.81481Z" fill="#07131C"/>
</svg>
