<svg width="40" height="40" viewBox="0 0 40 40" fill="none" xmlns="http://www.w3.org/2000/svg">
<rect width="40" height="40" rx="20" fill="#F6F8FA"/>
<path d="M13.9335 17.7827C13.8994 17.4389 13.7531 17.1719 13.4946 16.9815C13.2361 16.7912 12.8852 16.696 12.442 16.696C12.1409 16.696 11.8866 16.7386 11.6793 16.8239C11.4719 16.9062 11.3128 17.0213 11.202 17.169C11.094 17.3168 11.0401 17.4844 11.0401 17.6719C11.0344 17.8281 11.067 17.9645 11.1381 18.081C11.2119 18.1974 11.3128 18.2983 11.4406 18.3835C11.5685 18.4659 11.7162 18.5384 11.8838 18.6009C12.0514 18.6605 12.2304 18.7116 12.4207 18.7543L13.2048 18.9418C13.5855 19.027 13.9349 19.1406 14.2531 19.2827C14.5713 19.4247 14.8469 19.5994 15.0798 19.8068C15.3128 20.0142 15.4932 20.2585 15.621 20.5398C15.7517 20.821 15.8185 21.1435 15.8213 21.5071C15.8185 22.0412 15.6821 22.5043 15.4122 22.8963C15.1452 23.2855 14.7588 23.5881 14.2531 23.804C13.7503 24.017 13.1438 24.1236 12.4335 24.1236C11.729 24.1236 11.1153 24.0156 10.5926 23.7997C10.0727 23.5838 9.66648 23.2642 9.37386 22.8409C9.08409 22.4148 8.9321 21.8878 8.9179 21.2599H10.7034C10.7233 21.5526 10.8071 21.7969 10.9548 21.9929C11.1054 22.1861 11.3057 22.3324 11.5557 22.4318C11.8085 22.5284 12.094 22.5767 12.4122 22.5767C12.7247 22.5767 12.996 22.5312 13.2261 22.4403C13.4591 22.3494 13.6395 22.223 13.7673 22.0611C13.8952 21.8991 13.9591 21.7131 13.9591 21.5028C13.9591 21.3068 13.9009 21.142 13.7844 21.0085C13.6707 20.875 13.5031 20.7614 13.2815 20.6676C13.0628 20.5739 12.7943 20.4886 12.4761 20.4119L11.5259 20.1733C10.7901 19.9943 10.2091 19.7145 9.78295 19.3338C9.35682 18.9531 9.14517 18.4403 9.14801 17.7955C9.14517 17.267 9.2858 16.8054 9.56989 16.4105C9.85682 16.0156 10.2503 15.7074 10.7503 15.4858C11.2503 15.2642 11.8185 15.1534 12.4548 15.1534C13.1026 15.1534 13.6679 15.2642 14.1509 15.4858C14.6366 15.7074 15.0145 16.0156 15.2844 16.4105C15.5543 16.8054 15.6935 17.2628 15.702 17.7827H13.9335ZM19.9045 24.1278C19.3022 24.1278 18.7823 24.0199 18.3448 23.804C17.9073 23.5881 17.5707 23.2955 17.3349 22.9261C17.1019 22.554 16.9854 22.1392 16.9854 21.6818C16.9854 21.3409 17.0536 21.0384 17.19 20.7741C17.3263 20.5099 17.5167 20.267 17.761 20.0455C18.0053 19.821 18.2894 19.598 18.6133 19.3764L20.305 18.2642C20.5238 18.125 20.6843 17.9787 20.7866 17.8253C20.8888 17.669 20.94 17.5 20.94 17.3182C20.94 17.1449 20.8704 16.9844 20.7312 16.8366C20.592 16.6889 20.3945 16.6165 20.1388 16.6193C19.9684 16.6193 19.8207 16.6577 19.6957 16.7344C19.5707 16.8082 19.4727 16.9062 19.4016 17.0284C19.3335 17.1477 19.2994 17.2812 19.2994 17.429C19.2994 17.6108 19.3505 17.7955 19.4528 17.983C19.555 18.1705 19.6914 18.3693 19.8619 18.5795C20.0323 18.7869 20.2184 19.0114 20.4201 19.2528L24.5579 24H22.6658L19.2141 20.1562C18.9869 19.8977 18.7596 19.6278 18.5323 19.3466C18.3079 19.0625 18.1204 18.7614 17.9698 18.4432C17.8192 18.1222 17.744 17.7741 17.744 17.3991C17.744 16.9759 17.842 16.5952 18.038 16.2571C18.2369 15.919 18.5153 15.652 18.8732 15.456C19.2312 15.2571 19.6488 15.1577 20.1261 15.1577C20.592 15.1577 20.994 15.2528 21.332 15.4432C21.6729 15.6307 21.9343 15.8807 22.1161 16.1932C22.3008 16.5028 22.3931 16.8437 22.3931 17.2159C22.3931 17.6278 22.2908 18.0014 22.0863 18.3366C21.8846 18.669 21.6005 18.9673 21.234 19.2315L19.4528 20.5142C19.2113 20.6903 19.0323 20.8707 18.9158 21.0554C18.8022 21.2372 18.7454 21.4119 18.7454 21.5795C18.7454 21.7869 18.7965 21.973 18.8988 22.1378C19.0011 22.3026 19.146 22.4332 19.3335 22.5298C19.521 22.6236 19.7411 22.6705 19.994 22.6705C20.3008 22.6705 20.6033 22.6009 20.9016 22.4616C21.2028 22.3196 21.4755 22.1193 21.7198 21.8608C21.967 21.5994 22.1644 21.2898 22.3121 20.9318C22.4599 20.5739 22.5337 20.1776 22.5337 19.7429H24.038C24.038 20.277 23.9798 20.7585 23.8633 21.1875C23.7468 21.6136 23.5849 21.9858 23.3775 22.304C23.1701 22.6193 22.9329 22.8778 22.6658 23.0795C22.5806 23.1335 22.4982 23.1847 22.4187 23.233C22.3391 23.2812 22.2567 23.3324 22.1715 23.3864C21.8477 23.6477 21.4854 23.8366 21.0849 23.9531C20.6871 24.0696 20.2937 24.1278 19.9045 24.1278ZM25.5484 24V15.2727H28.9915C29.6535 15.2727 30.2174 15.3991 30.6833 15.652C31.1492 15.902 31.5043 16.25 31.7487 16.696C31.9958 17.1392 32.1194 17.6506 32.1194 18.2301C32.1194 18.8097 31.9944 19.321 31.7444 19.7642C31.4944 20.2074 31.1322 20.5526 30.6577 20.7997C30.1862 21.0469 29.6151 21.1705 28.9447 21.1705H26.7501V19.6918H28.6464C29.0015 19.6918 29.2941 19.6307 29.5242 19.5085C29.7572 19.3835 29.9305 19.2116 30.0441 18.9929C30.1606 18.7713 30.2188 18.517 30.2188 18.2301C30.2188 17.9403 30.1606 17.6875 30.0441 17.4716C29.9305 17.2528 29.7572 17.0838 29.5242 16.9645C29.2913 16.8423 28.9958 16.7812 28.6379 16.7812H27.3935V24H25.5484Z" fill="#1A202C"/>
<circle cx="20" cy="20" r="20" fill="white" fill-opacity="0.2"/>
</svg>
